<svg xmlns="http://www.w3.org/2000/svg" xmlns:xlink="http://www.w3.org/1999/xlink" xmlns:fi="http://pattern.flaticon.com/" x="0" y="0" width="1400" height="700" viewBox="0 0 1400 700"><rect x="0px" y="0px" width="100%" height="100%" opacity="1" fill="#ffffff"/><defs><g transform="matrix(1.25 0 0 1.25 188 102.00000133514402)" id="L1_1"><path d="m40.88 45.12-5.66-5.66a1 1 0 0 1 0-1.41l2.83-2.83a1 1 0 0 1 1.41 0l5.66 5.66a3 3 0 0 1 -4.24 4.24z" fill="#bec6c6"/><path d="m38.05 35.22-2.83 2.83-3.13-3.13a14.59 14.59 0 0 0 2.83-2.83z" fill="#f8f9f9"/><path d="m10.67 31.53-6.07 5.26-2.6-3 6.82-5.88a14.25 14.25 0 0 0 1.85 3.62z" fill="#f8f9f9"/><circle cx="23" cy="23" r="15" fill="#bec6c6"/><circle cx="23" cy="23" r="11" fill="#f8f9f9"/><path d="m46 8v8l-2.68-2.68-16 14.22a2 2 0 0 1 -2.81-.26l-3.72-4.47-7 6.09a10.89 10.89 0 0 1 -1.61-3.9l7.55-6.52a2 2 0 0 1 2.81.26l3.72 4.47 14.22-12.73-2.48-2.48z" fill="#f8f9f9"/><path d="m45.29 16.71a1 1 0 0 0 1.71-.71v-8a1 1 0 0 0 -1-1h-8a1 1 0 0 0 -.71 1.71l1.71 1.73-3.27 2.92a16 16 0 0 0 -28.06 14.19l-6.32 5.45a1 1 0 0 0 -.11 1.41l2.6 3a1 1 0 0 0 .76.35c.52 0 .27.09 5.91-4.8a16 16 0 0 0 21.49 3.27l2 2a2 2 0 0 0 .51 1.92l5.66 5.66a4 4 0 0 0 5.66-5.66l-5.66-5.66a2 2 0 0 0 -1.92-.49l-2-2a15.89 15.89 0 0 0 2.24-13l4.81-4.26zm-40.59 18.67-1.29-1.51 5-4.32a14.56 14.56 0 0 0 .95 1.79zm39.71 6.21a2 2 0 0 1 0 2.82 2 2 0 0 1 -2.82 0l-5.66-5.65 2.83-2.83zm-7.77-6.37-1.41 1.41-1.65-1.63a15.61 15.61 0 0 0 1.42-1.42zm-5.08-1.15a.86.86 0 0 0 -.18.14 14 14 0 1 1 2.9-19.52l-1.52 1.31a12 12 0 1 0 2.18 6l1.83-1.62a14 14 0 0 1 -5.21 13.69zm1.44-10.24a10 10 0 0 1 -17.9 5.22l5.56-4.82 3.08 3.7a3 3 0 0 0 4.23.36zm-20-.83a10 10 0 0 1 18.26-5.56l-4.89 4.36-3.07-3.73a3 3 0 0 0 -4.22-.37zm13.63 3.82a1 1 0 0 1 -1.4-.13l-3.72-4.47a1 1 0 0 0 -1.42-.12l-6.09 5.24a9.5 9.5 0 0 1 -.7-2l7.08-6.11a1 1 0 0 1 1.4.13l3.72 4.47a1 1 0 0 0 1.44.11l14.21-12.71a1.05 1.05 0 0 0 .33-.72c0-.53-.25-.7-1.07-1.51h4.59v4.59l-1-1a1 1 0 0 0 -1.37 0z" fill="#414141"/><circle cx="14" cy="9" r="8" fill="#f0bc5e"/><g fill="#f8f9f9"><circle cx="9" cy="9" r="1"/><circle cx="19" cy="9" r="1"/><path d="m11 7a3 3 0 0 1 3-3c3 0 3.92 4 2 4a1 1 0 0 1 -1-1 1 1 0 1 0 -1 1 1 1 0 0 1 1 1c0 1.91-4 1-4-2z"/><path d="m14 14c-3 0-3.92-4-2-4a1 1 0 0 1 1 1 1 1 0 1 0 1-1 1 1 0 0 1 -1-1c0-1.91 4-1 4 2a3 3 0 0 1 -3 3z"/><path d="m14 6a1 1 0 0 1 -1-1v-1a1 1 0 0 1 2 0v1a1 1 0 0 1 -1 1z"/><path d="m14 15a1 1 0 0 1 -1-1v-1a1 1 0 0 1 2 0v1a1 1 0 0 1 -1 1z"/></g></g><g transform="matrix(1.25 0 0 1.25 109 138)" id="L1_3"><rect x="27px" y="2px" width="14px" height="6px" fill="#bec6c6"/><path d="m32 8h4v4h-4z" fill="#bec6c6"/><path d="m3 8h4v4a2 2 0 0 1 -4 0z" fill="#f8f9f9"/><path d="m43 14v21h-38v-21a2 2 0 0 1 2-2h34a2 2 0 0 1 2 2z" fill="#f8f9f9"/><rect x="2px" y="35px" width="44px" height="11px" fill="#bec6c6"/><path d="m21.5 21.5h5v38h-5z" transform="matrix(0 1 -1 0 64.5 16.5)" fill="#f8f9f9"/><path d="m27 40h-6a2 2 0 0 1 -2-2h10a2 2 0 0 1 -2 2z" fill="#bec6c6"/><rect x="28px" y="15px" width="12px" height="7px" fill="#f0bc5e"/><path d="m11 12h-4v-6a2 2 0 0 1 4 0z" fill="#bec6c6"/><path d="m23 6v10h-12v-10a2 2 0 0 0 -2-2h12a2 2 0 0 1 2 2z" fill="#f8f9f9"/><path d="m44 34v-20a3 3 0 0 0 -3-3h-4v-2h3a2 2 0 0 0 2-2v-4a2 2 0 0 0 -2-2h-12a2 2 0 0 0 -2 2v4a2 2 0 0 0 2 2h3v2h-7v-5a3 3 0 0 0 -3-3h-12a3 3 0 0 0 -3 3v1h-3a1 1 0 0 0 -1 1v4a3 3 0 0 0 2 2.82v19.18a3 3 0 0 0 -3 3v7a3 3 0 0 0 3 3h40a3 3 0 0 0 3-3v-7a3 3 0 0 0 -3-3zm-16-31h12v4h-12zm5 6h2v2h-2zm-12-4a1 1 0 0 1 1 1v9h-10c0-9.72.07-9.35-.18-10zm-13 1a1 1 0 0 1 2 0v5h-2zm-4 3h2v2.18a3 3 0 0 0 -1.7 1.53 1 1 0 0 1 -.3-.71zm2 5a1 1 0 0 1 1-1h3v2h-1a1 1 0 0 0 0 2h16a1 1 0 0 0 0-2h-1v-2h17a1 1 0 0 1 1 1v20h-36zm39 30a1 1 0 0 1 -1 1h-40a1 1 0 0 1 -1-1v-7a1 1 0 0 1 1-1h40a1 1 0 0 1 1 1z" fill="#414141"/><g fill="#bec6c6"><rect x="9px" y="19px" width="4px" height="3px"/><rect x="15px" y="19px" width="4px" height="3px"/><rect x="21px" y="19px" width="4px" height="3px"/><rect x="9px" y="24px" width="4px" height="3px"/><rect x="15px" y="24px" width="4px" height="3px"/><rect x="21px" y="24px" width="4px" height="3px"/><rect x="9px" y="29px" width="4px" height="3px"/><rect x="15px" y="29px" width="4px" height="3px"/><rect x="21px" y="29px" width="4px" height="3px"/><rect x="29px" y="24px" width="4px" height="3px"/><rect x="35px" y="24px" width="4px" height="3px"/><rect x="29px" y="29px" width="4px" height="3px"/><rect x="35px" y="29px" width="4px" height="3px"/></g></g><g transform="matrix(2.1844060326234924 -0.7709668366795294 0.7709668366795294 2.1844060326234924 4.923737571378979 149.15917889531687)" id="L1_5"><path d="m12 22h24v19h-24z" fill="#bec6c6"/><path d="m19 32h10v10h-10z" fill="#f8f9f9"/><path d="m31 32h-14v-3l7-3 7 3z" fill="#f8f9f9"/><path d="m8 6h32v4h-32z" fill="#bec6c6"/><path d="m44 18h-40l2-8h36z" fill="#f8f9f9"/><path d="m2 18h44v4h-44z" fill="#bec6c6"/><path d="m2 42h44v4h-44z" fill="#bec6c6"/><g fill="#f8f9f9"><path d="m4 22h10v4h-10z"/><path d="m4 38h10v4h-10z"/><path d="m6 26h6v12h-6z"/><path d="m34 22h10v4h-10z" transform="matrix(-1 0 0 -1 78 48)"/><path d="m34 38h10v4h-10z" transform="matrix(-1 0 0 -1 78 80)"/><path d="m36 26h6v12h-6z" transform="matrix(-1 0 0 -1 78 64)"/></g><path d="m44 27a1 1 0 0 0 1-1v-3h1a1 1 0 0 0 1-1v-4a1 1 0 0 0 -1-1h-1.22l-1.78-7.24a1 1 0 0 0 -1-.76h-1v-3a1 1 0 0 0 -1-1h-32a1 1 0 0 0 -1 1v3h-1a1 1 0 0 0 -1 .76l-1.78 7.24h-1.22a1 1 0 0 0 -1 1v4a1 1 0 0 0 1 1h1v3a1 1 0 0 0 1 1h1v10h-1a1 1 0 0 0 -1 1v3h-1a1 1 0 0 0 -1 1v4a1 1 0 0 0 1 1h44a1 1 0 0 0 1-1v-4a1 1 0 0 0 -1-1h-1v-3a1 1 0 0 0 -1-1h-1v-10zm-1-2h-8v-2h8zm-9 12a1 1 0 0 0 -1 1v3h-3v-8h1a1 1 0 0 0 1-1v-3a1 1 0 0 0 -.61-.92l-7-3a1 1 0 0 0 -.78 0l-7 3a1 1 0 0 0 -.61.92v3a1 1 0 0 0 1 1h1v8h-3v-3a1 1 0 0 0 -1-1h-1v-10h1a1 1 0 0 0 1-1v-3h18v3a1 1 0 0 0 1 1h1v10zm-14 4v-8h3v8zm-2-10v-1.34l6-2.57 6 2.57v1.34zm7 2h3v8h-3zm-16-26h30v2h-30zm-2.22 4h34.44l1.5 6h-37.44zm-3.78 8h42v2h-42zm10 4v2h-8v-2zm-6 4h4v10h-4zm-2 12h8v2h-8zm40 6h-42v-2h42zm-10-4v-2h8v2zm6-4h-4v-10h4z" fill="#414141"/><circle cx="24" cy="9" r="8" fill="#f0bc5e"/><circle cx="19" cy="9" r="1" fill="#f8f9f9"/><circle cx="29" cy="9" r="1" fill="#f8f9f9"/><path d="m24 8a1 1 0 1 1 1-1 1 1 0 0 0 1 1c1.66 0 1.21-3-1-3.82v-.18a1 1 0 0 0 -2 0v.18a3 3 0 0 0 1 5.82 1 1 0 1 1 -1 1 1 1 0 0 0 -1-1c-1.66 0-1.21 3 1 3.82v.18a1 1 0 0 0 2 0v-.18a3 3 0 0 0 -1-5.82z" fill="#f8f9f9"/></g><g transform="matrix(1.792414528260297 0.5301507634970196 -0.5301507634970196 1.792414528260297 19.45285802869617 173.60220555371188)" id="L1_6"><circle cx="26" cy="24" r="20" fill="#bec6c6"/><path d="m26 44h-4a20 20 0 0 1 0-40h4a20 20 0 0 0 0 40z" fill="#f8f9f9"/><path d="m6 25h-4a1 1 0 0 1 0-2h4a1 1 0 0 1 0 2z" fill="#bec6c6"/><path d="m6.4 21h-4a1 1 0 1 1 0-2h4a1 1 0 0 1 0 2z" fill="#bec6c6"/><path d="m7.67 17h-4a1 1 0 0 1 0-2h4a1 1 0 1 1 0 2z" fill="#bec6c6"/><path d="m10 13h-4a1 1 0 0 1 0-2h4a1 1 0 0 1 0 2z" fill="#bec6c6"/><path d="m6.4 29h-4a1 1 0 1 1 0-2h4a1 1 0 0 1 0 2z" fill="#bec6c6"/><path d="m7.67 33h-4a1 1 0 0 1 0-2h4a1 1 0 1 1 0 2z" fill="#bec6c6"/><path d="m10 37h-4a1 1 0 0 1 0-2h4a1 1 0 0 1 0 2z" fill="#bec6c6"/><circle cx="26" cy="24" r="15" fill="#f8f9f9"/><path d="m26 3h-4a21 21 0 0 0 0 42h4a21 21 0 0 0 0-42zm-23 21a19 19 0 0 1 11-17.21 21 21 0 0 0 0 34.42 19 19 0 0 1 -11-17.21zm23 19a19 19 0 1 1 19-19 19 19 0 0 1 -19 19z" fill="#414141"/><g fill="#f8f9f9"><circle cx="26" cy="7" r="1"/><circle cx="17" cy="9" r="1"/><circle cx="11" cy="15" r="1"/><circle cx="9" cy="24" r="1"/><circle cx="11" cy="32" r="1"/><circle cx="17" cy="38" r="1"/><circle cx="26" cy="41" r="1"/><circle cx="34" cy="38" r="1"/><circle cx="40" cy="32" r="1"/><circle cx="43" cy="24" r="1"/><circle cx="40" cy="15" r="1"/><circle cx="34" cy="9" r="1"/></g><path d="m30.33 30.72a5 5 0 0 1 -8.23-2.72h3.9a1 1 0 0 0 0-2h-4v-4h4a1 1 0 0 0 0-2h-3.9a5 5 0 0 1 8.23-2.72 1 1 0 0 0 1.34-1.48 7 7 0 0 0 -11.59 4.2h-1.08a1 1 0 0 0 0 2h1v4h-1a1 1 0 0 0 0 2h1.08a7 7 0 0 0 11.59 4.2 1 1 0 0 0 -1.34-1.48z" fill="#f0bc5e"/></g><g transform="matrix(1.118870684121551 0.4040366514579808 -0.4040366514579808 1.118870684121551 37.106798923008895 86.65756662373154)" id="L1_7"><circle cx="26" cy="24" r="20" fill="#bec6c6"/><path d="m26 44h-4a20 20 0 0 1 0-40h4a20 20 0 0 0 0 40z" fill="#f8f9f9"/><path d="m6 25h-4a1 1 0 0 1 0-2h4a1 1 0 0 1 0 2z" fill="#bec6c6"/><path d="m6.4 21h-4a1 1 0 1 1 0-2h4a1 1 0 0 1 0 2z" fill="#bec6c6"/><path d="m7.67 17h-4a1 1 0 0 1 0-2h4a1 1 0 1 1 0 2z" fill="#bec6c6"/><path d="m10 13h-4a1 1 0 0 1 0-2h4a1 1 0 0 1 0 2z" fill="#bec6c6"/><path d="m6.4 29h-4a1 1 0 1 1 0-2h4a1 1 0 0 1 0 2z" fill="#bec6c6"/><path d="m7.67 33h-4a1 1 0 0 1 0-2h4a1 1 0 1 1 0 2z" fill="#bec6c6"/><path d="m10 37h-4a1 1 0 0 1 0-2h4a1 1 0 0 1 0 2z" fill="#bec6c6"/><circle cx="26" cy="24" r="15" fill="#f8f9f9"/><path d="m26 3h-4a21 21 0 0 0 0 42h4a21 21 0 0 0 0-42zm-23 21a19 19 0 0 1 11-17.21 21 21 0 0 0 0 34.42 19 19 0 0 1 -11-17.21zm23 19a19 19 0 1 1 19-19 19 19 0 0 1 -19 19z" fill="#414141"/><g fill="#f8f9f9"><circle cx="26" cy="7" r="1"/><circle cx="17" cy="9" r="1"/><circle cx="11" cy="15" r="1"/><circle cx="9" cy="24" r="1"/><circle cx="11" cy="32" r="1"/><circle cx="17" cy="38" r="1"/><circle cx="26" cy="41" r="1"/><circle cx="34" cy="38" r="1"/><circle cx="40" cy="32" r="1"/><circle cx="43" cy="24" r="1"/><circle cx="40" cy="15" r="1"/><circle cx="34" cy="9" r="1"/></g><path d="m26 23a3 3 0 1 1 3-3 1 1 0 0 0 2 0 5 5 0 0 0 -4-4.9v-1.1a1 1 0 0 0 -2 0v1.1a5 5 0 0 0 1 9.9 3 3 0 1 1 -3 3 1 1 0 0 0 -2 0 5 5 0 0 0 4 4.9v1.1a1 1 0 0 0 2 0v-1.1a5 5 0 0 0 -1-9.9z" fill="#f0bc5e"/></g><g transform="matrix(1.429668103804233 0.40403663334761414 -0.40403663334761414 1.429668103804233 215.95845786282396 16.664625097409633)" id="L1_9"><circle cx="26" cy="24" r="20" fill="#bec6c6"/><path d="m26 44h-4a20 20 0 0 1 0-40h4a20 20 0 0 0 0 40z" fill="#f8f9f9"/><path d="m6 25h-4a1 1 0 0 1 0-2h4a1 1 0 0 1 0 2z" fill="#bec6c6"/><path d="m6.4 21h-4a1 1 0 1 1 0-2h4a1 1 0 0 1 0 2z" fill="#bec6c6"/><path d="m7.67 17h-4a1 1 0 0 1 0-2h4a1 1 0 1 1 0 2z" fill="#bec6c6"/><path d="m10 13h-4a1 1 0 0 1 0-2h4a1 1 0 0 1 0 2z" fill="#bec6c6"/><path d="m6.4 29h-4a1 1 0 1 1 0-2h4a1 1 0 0 1 0 2z" fill="#bec6c6"/><path d="m7.67 33h-4a1 1 0 0 1 0-2h4a1 1 0 1 1 0 2z" fill="#bec6c6"/><path d="m10 37h-4a1 1 0 0 1 0-2h4a1 1 0 0 1 0 2z" fill="#bec6c6"/><circle cx="26" cy="24" r="15" fill="#f8f9f9"/><path d="m26 3h-4a21 21 0 0 0 0 42h4a21 21 0 0 0 0-42zm-23 21a19 19 0 0 1 11-17.21 21 21 0 0 0 0 34.42 19 19 0 0 1 -11-17.21zm23 19a19 19 0 1 1 19-19 19 19 0 0 1 -19 19z" fill="#414141"/><g fill="#f8f9f9"><circle cx="26" cy="7" r="1"/><circle cx="17" cy="9" r="1"/><circle cx="11" cy="15" r="1"/><circle cx="9" cy="24" r="1"/><circle cx="11" cy="32" r="1"/><circle cx="17" cy="38" r="1"/><circle cx="26" cy="41" r="1"/><circle cx="34" cy="38" r="1"/><circle cx="40" cy="32" r="1"/><circle cx="43" cy="24" r="1"/><circle cx="40" cy="15" r="1"/><circle cx="34" cy="9" r="1"/></g><path d="m31 32h-7.59l.73-.73a6.26 6.26 0 0 0 1.86-4.27h3a1 1 0 0 0 0-2h-3.27c-.79-2.66-2.73-3.24-2.73-5.5a3.5 3.5 0 0 1 3.5-3.5h.5a5 5 0 0 1 3.33 1.28 1 1 0 0 0 1.34-1.48 6.94 6.94 0 0 0 -4.67-1.8h-.5a5.51 5.51 0 0 0 -5.5 5.5c0 2.83 1.86 3.85 2.6 5.5h-2.6a1 1 0 0 0 0 2h3a4.29 4.29 0 0 1 -1.25 2.86l-2.44 2.43a1 1 0 0 0 .69 1.71h10a1 1 0 0 0 0-2z" fill="#f0bc5e"/></g><g transform="matrix(4.683361315623476 -0.9731659842742556 0.9731659842742556 4.683361315623476 90.93319144454043 -63.09790962889494)" id="L1_10"><rect x="2px" y="5px" width="44px" height="32px" fill="#f8f9f9"/><g fill="#bec6c6"><path d="m11 22h6v7h-6z"/><path d="m22 19h6v10h-6z"/><path d="m41 15h-2v14h-6v-14h-2l5-6z"/><path d="m46 29v5a3 3 0 0 1 -3 3h-38a3 3 0 0 1 -3-3v-5z"/></g><path d="m33 45h-18a10.23 10.23 0 0 0 3-7.24v-.76h12v.76a10.25 10.25 0 0 0 3 7.24z" fill="#f8f9f9"/><path d="m24 41a2.57 2.57 0 0 1 2.49 1.94l.51 2.06h-6l.51-2.06a2.57 2.57 0 0 1 2.49-1.94z" fill="#bec6c6"/><path d="m25 34h-2a1 1 0 0 1 0-2h2a1 1 0 0 1 0 2z" fill="#f8f9f9"/><path d="m43 4h-38a4 4 0 0 0 -4 4v26a4 4 0 0 0 4 4h12a9.17 9.17 0 0 1 -2.43 6h-1.57a1 1 0 0 0 0 2h22a1 1 0 0 0 0-2h-1.56a9.17 9.17 0 0 1 -2.44-6h12a4 4 0 0 0 4-4v-26a4 4 0 0 0 -4-4zm-38 2h38a2 2 0 0 1 2 2v20h-5v-12h1a1 1 0 0 0 .77-1.64l-5-6a1 1 0 0 0 -1.54 0l-5 6a1 1 0 0 0 .77 1.64h1v12h-3v-9a1 1 0 0 0 -1-1h-6a1 1 0 0 0 -1 1v9h-3v-6a1 1 0 0 0 -1-1h-6a1 1 0 0 0 -1 1v6h-7v-20a2 2 0 0 1 2-2zm28.13 8 2.87-3.44 2.87 3.44a1 1 0 0 0 -.87 1v13h-4v-13a1 1 0 0 0 -.87-1zm-6.13 14h-4v-8h4zm-11 0h-4v-5h4zm14.89 16h-13.78a11.15 11.15 0 0 0 1.89-6h10a11.15 11.15 0 0 0 1.89 6zm12.11-8h-38a2 2 0 0 1 -2-2v-4h42v4a2 2 0 0 1 -2 2z" fill="#414141"/><circle cx="41" cy="33" r="1" fill="#f8f9f9"/><circle cx="37" cy="33" r="1" fill="#f8f9f9"/><circle cx="14" cy="10" r="8" fill="#f0bc5e"/><circle cx="9" cy="10" r="1" fill="#f8f9f9"/><circle cx="19" cy="10" r="1" fill="#f8f9f9"/><path d="m14 9a1 1 0 1 1 1-1 1 1 0 0 0 1 1c1.66 0 1.21-3-1-3.82v-.18a1 1 0 0 0 -2 0v.18a3 3 0 0 0 1 5.82 1 1 0 1 1 -1 1 1 1 0 0 0 -1-1c-1.66 0-1.21 3 1 3.82v.18a1 1 0 0 0 2 0v-.18a3 3 0 0 0 -1-5.82z" fill="#f8f9f9"/></g><g transform="matrix(1.8755898475646973 0 0 1.8755898475646973 22.298638582229614 -39.014156341552734)" id="L1_12"><path d="m11 43v-2h-3a6 6 0 0 1 -6-6v-4l.63 1.9a6 6 0 0 0 5.69 4.1h2.68v-2l5 4z" fill="#bec6c6"/><path d="m37 5v2h3a6 6 0 0 1 6 6v4l-.63-1.9a6 6 0 0 0 -5.69-4.1h-2.68v2l-5-4z" fill="#bec6c6"/><circle cx="17" cy="13" r="11" fill="#f8f9f9"/><circle cx="35" cy="35" r="11" fill="#f8f9f9"/><path d="m35 46h-4a11 11 0 0 1 0-22h4a11 11 0 0 0 0 22z" fill="#bec6c6"/><path d="m17 24h-4a11 11 0 0 1 0-22h4a11 11 0 0 0 0 22z" fill="#bec6c6"/><circle cx="17" cy="13" r="8" fill="#f0bc5e"/><circle cx="35" cy="35" r="8" fill="#bec6c6"/><g fill="#f8f9f9"><path d="m38 39h-3.86a4.48 4.48 0 0 0 .53-2h1.33a1 1 0 0 0 0-2h-1.6c-.22-1.08-.57-2.11-.1-2.93a1.92 1.92 0 0 1 3-.56 1 1 0 1 0 1.37-1.51 3.93 3.93 0 0 0 -6.11 1.06 5.08 5.08 0 0 0 -.2 3.91h-.36a1 1 0 0 0 0 2h.68c-.07 1.08-.63 1.54-1.39 2.29a1 1 0 0 0 .71 1.74h6a1 1 0 0 0 0-2z"/><circle cx="12" cy="13" r="1"/><circle cx="22" cy="13" r="1"/><path d="m17 12a1 1 0 1 1 1-1 1 1 0 0 0 1 1c1.66 0 1.21-3-1-3.82v-.18a1 1 0 0 0 -2 0v.18a3 3 0 0 0 1 5.82 1 1 0 1 1 -1 1 1 1 0 0 0 -1-1c-1.66 0-1.21 3 1 3.82v.18a1 1 0 0 0 2 0v-.18a3 3 0 0 0 -1-5.82z"/></g><path d="m11.62 34.22a1 1 0 0 0 -1.62.78v1h-1.68a5 5 0 0 1 -4.74-3.42l-.58-1.9a1 1 0 0 0 -2 .32v4a7 7 0 0 0 7 7h2v1a1 1 0 0 0 1 1c.49 0 .26.07 5.62-4.22a1 1 0 0 0 0-1.56zm.38 6.7a1 1 0 0 0 -1-.92h-3a5 5 0 0 1 -5-4.41 7 7 0 0 0 5.32 2.41h2.68a1 1 0 0 0 1-.92l2.4 1.92z" fill="#414141"/><path d="m40 6h-2v-1a1 1 0 0 0 -1.62-.78l-5 4a1 1 0 0 0 0 1.56l5 4a1 1 0 0 0 1.62-.78v-1h1.68a5 5 0 0 1 4.74 3.42l.63 1.9a1 1 0 0 0 1.95-.32v-4a7 7 0 0 0 -7-7zm-.32 4h-2.68a1 1 0 0 0 -1 .92l-2.4-1.92 2.4-1.92a1 1 0 0 0 1 .92h3a5 5 0 0 1 5 4.41 7 7 0 0 0 -5.32-2.41z" fill="#414141"/><path d="m29 13a12 12 0 0 0 -12-12h-4a12 12 0 0 0 0 24h4a12 12 0 0 0 12-12zm-26 0a10 10 0 0 1 6.51-9.36 12 12 0 0 0 0 18.72 10 10 0 0 1 -6.51-9.36zm14 10a10 10 0 1 1 10-10 10 10 0 0 1 -10 10z" fill="#414141"/><path d="m35 23h-4a12 12 0 0 0 0 24h4a12 12 0 0 0 0-24zm-14 12a10 10 0 0 1 6.51-9.36 12 12 0 0 0 0 18.72 10 10 0 0 1 -6.51-9.36zm14 10a10 10 0 1 1 10-10 10 10 0 0 1 -10 10z" fill="#414141"/></g><g transform="matrix(0.7022257109037762 0.22571541658783922 -0.22571541658783922 0.7022257109037762 319.7255772503998 27.47283492575459)" id="L1_13"><rect x="12px" y="6px" width="34px" height="22px" fill="#bec6c6"/><rect x="2px" y="18px" width="34px" height="22px" fill="#f8f9f9"/><path d="m43 5h-28a4 4 0 0 0 -4 4v8h-6a4 4 0 0 0 -4 4v16a4 4 0 0 0 4 4h28a4 4 0 0 0 4-4v-8h6a4 4 0 0 0 4-4v-16a4 4 0 0 0 -4-4zm-8 32a2 2 0 0 1 -2 2h-28a2 2 0 0 1 -2-2v-16a2 2 0 0 1 2-2h28a2 2 0 0 1 2 2zm10-12a2 2 0 0 1 -2 2h-6v-6a4 4 0 0 0 -4-4h-20v-8a2 2 0 0 1 2-2h28a2 2 0 0 1 2 2z" fill="#414141"/><g fill="#bec6c6"><rect x="5px" y="21px" width="10px" height="6px"/><path d="m32 25a1 1 0 0 1 -1-1v-2a1 1 0 0 1 2 0v2a1 1 0 0 1 -1 1z"/><path d="m28 25a1 1 0 0 1 -1-1v-2a1 1 0 0 1 2 0v2a1 1 0 0 1 -1 1z"/><path d="m24 25a1 1 0 0 1 -1-1v-2a1 1 0 0 1 2 0v2a1 1 0 0 1 -1 1z"/><path d="m22 33h-16a1 1 0 0 1 0-2h16a1 1 0 0 1 0 2z"/><path d="m14 37h-2a1 1 0 0 1 0-2h2a1 1 0 0 1 0 2z"/><path d="m8 37h-2a1 1 0 0 1 0-2h2a1 1 0 0 1 0 2z"/></g><path d="m13 10h32v4h-32z" fill="#f8f9f9"/><rect x="17px" y="35px" width="28px" height="8px" fill="#f0bc5e"/><path d="m26.92 39-.92-.83 1.23.06-.06-1.23.83.92.83-.92-.06 1.23 1.23-.06-.92.83.92.83-1.23-.06.06 1.23-.83-.92-.83.92.06-1.23-1.23.06z" fill="#f8f9f9"/><path d="m20.92 39-.92-.83 1.23.06-.06-1.23.83.92.83-.92-.06 1.23 1.23-.06-.92.83.92.83-1.23-.06.06 1.23-.83-.92-.83.92.06-1.23-1.23.06z" fill="#f8f9f9"/><path d="m32.92 39-.92-.83 1.23.06-.06-1.23.83.92.83-.92-.06 1.23 1.23-.06-.92.83.92.83-1.23-.06.06 1.23-.83-.92-.83.92.06-1.23-1.23.06z" fill="#f8f9f9"/><path d="m38.92 39-.92-.83 1.23.06-.06-1.23.83.92.83-.92-.06 1.23 1.23-.06-.92.83.92.83-1.23-.06.06 1.23-.83-.92-.83.92.06-1.23-1.23.06z" fill="#f8f9f9"/></g><g transform="matrix(2.769501641400271 -0.9428090498595483 0.9428090498595483 2.769501641400271 233.90454340976433 111.15937780302266)" id="L1_14"><path d="m26 39h-12l3-8h6z" fill="#bec6c6"/><path d="m14 39h-12l3-8h6z" fill="#bec6c6"/><path d="m46 39h-20l-3-8h20z" fill="#f8f9f9"/><path d="m17 31-3 8-3-8z" fill="#f8f9f9"/><path d="m19 31h-12l3-8h6z" fill="#bec6c6"/><path d="m41 31h-22l-3-8h22z" fill="#f8f9f9"/><path d="m41.77 11.23 3.23 1.77-3.23 1.77-1.77 3.23-1.77-3.23-3.23-1.77 3.23-1.77 1.77-3.23z" fill="#f0bc5e"/><path d="m7.06 16.94 1.94 1.06-1.94 1.06-1.06 1.94-1.06-1.94-1.94-1.06 1.94-1.06 1.06-1.94z" fill="#f0bc5e"/><path d="m32 23-3 8-16-15 6-5z" fill="#f8f9f9"/><path d="m38 23h-6l-13-12h6z" fill="#f8f9f9"/><path d="m41 31h-12l3-8h6z" fill="#bec6c6"/><path d="m46.94 38.65-3-8a1 1 0 0 0 -.94-.65h-1.3l-2.76-7.35c-.16-.4.69.5-13.26-12.38a1 1 0 0 0 -.68-.27h-6c-.51 0-.17-.16-6.64 5.23a1 1 0 0 0 0 1.5l5.58 5.27h-7.94a1 1 0 0 0 -.94.65l-2.76 7.35h-1.3a1 1 0 0 0 -.94.65l-3 8a1 1 0 0 0 .94 1.35h44a1 1 0 0 0 .94-1.35zm-14.25-14.65h4.62l2.25 6h-9.11zm-8.08-12 10.83 10h-3l-10.88-10zm-10.1 4 4.49-3.67 11.86 11-.27.72-2 5.25zm5.56 8 6.4 6h-6.78l-2.24-6zm-7.62 8h3.1l-1.55 4.14zm-1.76-8h4.62l2.24 6h-9.11zm-7.25 14 2.25-6h4.62l2.24 6zm12 0 2.24-6h4.62l2.24 6zm11.24 0-2.24-6h17.87l2.25 6z" fill="#414141"/></g><g transform="matrix(1.25 0 0 1.25 209 223)" id="L1_15"><path d="m35 25h-2v17h-6v-17h-2l5-6z" fill="#f8f9f9"/><path d="m33 43h-6a1 1 0 0 1 -1-1v-16h-1a1 1 0 0 1 -.77-1.64l5-6a1 1 0 0 1 1.54 0l5 6a1 1 0 0 1 -.77 1.64h-1v16a1 1 0 0 1 -1 1zm-5-2h4v-16a1 1 0 0 1 .87-1l-2.87-3.44-2.87 3.44a1 1 0 0 1 .87 1z" fill="#414141"/><path d="m46 12h-2v30h-6v-30h-2l5-6z" fill="#f8f9f9"/><path d="m44 43h-6a1 1 0 0 1 -1-1v-29h-1a1 1 0 0 1 -.77-1.64l5-6a1 1 0 0 1 1.54 0l5 6a1 1 0 0 1 -.77 1.64h-1v29a1 1 0 0 1 -1 1zm-5-2h4v-29a1 1 0 0 1 .87-1l-2.87-3.44-2.87 3.44a1 1 0 0 1 .87 1z" fill="#414141"/><path d="m11 29h2a4 4 0 0 1 4 4v1a0 0 0 0 1 0 0h-2a4 4 0 0 1 -4-4v-1a0 0 0 0 1 0 0z" transform="matrix(-1 0 0 -1 28 63)" fill="#f8f9f9"/><path d="m21 29h2a0 0 0 0 1 0 0v1a4 4 0 0 1 -4 4h-2a0 0 0 0 1 0 0v-1a4 4 0 0 1 4-4z" fill="#f8f9f9"/><path d="m28 42h-22l.19-.51a11.55 11.55 0 0 1 21.62 0z" fill="#bec6c6"/><path d="m46 42v4h-44v-44h4v40z" fill="#bec6c6"/><path d="m46 47h-44a1 1 0 0 1 -1-1v-44a1 1 0 0 1 1-1h4a1 1 0 0 1 1 1v39h39a1 1 0 0 1 1 1v4a1 1 0 0 1 -1 1zm-43-2h42v-2h-39a1 1 0 0 1 -1-1v-39h-2z" fill="#414141"/><path d="m17 35h-2a5 5 0 0 1 -5-5v-1a1 1 0 0 1 1-1h2a5 5 0 0 1 5 5v1a1 1 0 0 1 -1 1zm-5-5a3 3 0 0 0 3 3h1a3 3 0 0 0 -3-3z" fill="#414141"/><path d="m19 35h-2a1 1 0 0 1 -1-1v-1a5 5 0 0 1 5-5h2a1 1 0 0 1 1 1v1a5 5 0 0 1 -5 5zm-1-2h1a3 3 0 0 0 3-3h-1a3 3 0 0 0 -3 3z" fill="#414141"/><path d="m17 35a1 1 0 0 1 -1-1v-12a1 1 0 0 1 2 0v12a1 1 0 0 1 -1 1z" fill="#414141"/><circle cx="17" cy="16" r="8" fill="#f0bc5e"/><g fill="#f8f9f9"><path d="m14 14a3 3 0 0 1 3-3c3 0 3.92 4 2 4a1 1 0 0 1 -1-1 1 1 0 1 0 -1 1 1 1 0 0 1 1 1c0 1.91-4 1-4-2z"/><path d="m17 21c-3 0-3.92-4-2-4a1 1 0 0 1 1 1 1 1 0 1 0 1-1 1 1 0 0 1 -1-1c0-1.91 4-1 4 2a3 3 0 0 1 -3 3z"/><path d="m17 13a1 1 0 0 1 -1-1v-1a1 1 0 0 1 2 0v1a1 1 0 0 1 -1 1z"/><path d="m17 22a1 1 0 0 1 -1-1v-1a1 1 0 0 1 2 0v1a1 1 0 0 1 -1 1z"/><circle cx="12" cy="16" r="1"/><circle cx="22" cy="16" r="1"/></g><path d="m28 43h-22a1 1 0 0 1 -.82-.43c-.36-.52-.09-1 .07-1.43a12.55 12.55 0 0 1 23.5 0l.19.51a1 1 0 0 1 -.94 1.35zm-20.51-2h19a10.54 10.54 0 0 0 -19 0z" fill="#414141"/></g><g transform="matrix(0.972078209473883 -0.5017177808002302 0.5017177808002302 0.972078209473883 251.13404957582196 -1.1224156597460198)" id="L1_16"><path d="m7 11h34a2 2 0 0 1 2 2v24a0 0 0 0 1 0 0h-38a0 0 0 0 1 0 0v-24a2 2 0 0 1 2-2z" fill="#bec6c6"/><path d="m2 37h44a0 0 0 0 1 0 0v3a3 3 0 0 1 -3 3h-38a3 3 0 0 1 -3-3v-3a0 0 0 0 1 0 0z" fill="#f8f9f9"/><path d="m14 8h20v32h-20z" transform="matrix(0 1 -1 0 48 0)" fill="#f8f9f9"/><path d="m11 27h26v4h-26z" fill="#bec6c6"/><path d="m29 40h-10a2 2 0 0 1 -2-2h14a2 2 0 0 1 -2 2z" fill="#bec6c6"/><path d="m33 5v26h-18v-26l3 1 3-1 3 1 3-1 3 1z" fill="#f8f9f9"/><path d="m46 36h-2v-23a3 3 0 0 0 -3-3h-7v-5a1 1 0 0 0 -1.32-1l-2.68 1c-2.89-1-2.89-1-3.32-.9l-2.68.9-2.68-.9c-.44-.2-.45-.1-3.32.9l-2.68-.9a1 1 0 0 0 -1.32.9v5h-7a3 3 0 0 0 -3 3v23h-2a1 1 0 0 0 -1 1v3a4 4 0 0 0 4 4h38a4 4 0 0 0 4-4v-3a1 1 0 0 0 -1-1zm-30-29.61c1.89.63 1.92.69 2.32.56l2.68-.9 2.68.9c.44.14.45.06 3.32-.9 2.89 1 2.89 1 3.32.9l1.68-.56v23.61h-16zm18 21.61h2v2h-2zm-22 2v-2h2v2zm-6-17a1 1 0 0 1 1-1h7v14h-3a1 1 0 0 0 -1 1v4a1 1 0 0 0 1 1h26a1 1 0 0 0 1-1v-4a1 1 0 0 0 -1-1h-3v-14h7a1 1 0 0 1 1 1v23h-36zm39 27a2 2 0 0 1 -2 2h-38a2 2 0 0 1 -2-2v-2h42z" fill="#414141"/><g fill="#bec6c6"><circle cx="19" cy="23" r="1"/><path d="m29 24h-6a1 1 0 0 1 0-2h6a1 1 0 0 1 0 2z"/><circle cx="19" cy="27" r="1"/><path d="m29 28h-6a1 1 0 0 1 0-2h6a1 1 0 0 1 0 2z"/></g><circle cx="21" cy="12" r="2" fill="#f0bc5e"/><circle cx="27" cy="18" r="2" fill="#f0bc5e"/><path d="m20 20a1 1 0 0 1 -.71-1.71l8-8a1 1 0 0 1 1.42 1.42l-8 8a1 1 0 0 1 -.71.29z" fill="#f0bc5e"/></g><g transform="matrix(1.1375195853216438 -0.3996690290957007 0.3996690290957007 1.1375195853216438 90.39466186840107 234.77943720680332)" id="L1_18"><path d="m15.82 18.82a16.22 16.22 0 0 0 -3.5 6.23 18 18 0 0 0 -.49 1.78l-1.12-1.12c-1.23-1.23-2.19-.19-3.42-1.42l-.58-.58c-1.23-1.23-2.19-.19-3.42-1.42l-1.29-1.29 5.58-4a5.43 5.43 0 0 1 3.16-1c2.58 0 3.8 1.54 5.08 2.82z" fill="#bec6c6"/><path d="m46 21c-1.22 1.22-1.75 2-3 2a2.41 2.41 0 0 0 -1.71.71l-.58.58c-1.23 1.23-2.19.19-3.42 1.42l-1.12 1.12a18 18 0 0 0 -.49-1.78 16.15 16.15 0 0 0 -3.5-6.23l1.23-1.23a5.46 5.46 0 0 1 7-.58z" fill="#bec6c6"/><g fill="#f8f9f9"><path d="m7.07 25.07a1 1 0 0 1 -.83-1.56 15.29 15.29 0 0 1 3.16-3.31 1 1 0 1 1 1.2 1.6 13.51 13.51 0 0 0 -2.7 2.83 1 1 0 0 1 -.83.44z"/><path d="m40.93 25.07a1 1 0 0 1 -.83-.44 13.51 13.51 0 0 0 -2.7-2.83 1 1 0 1 1 1.2-1.6 15.29 15.29 0 0 1 3.16 3.31 1 1 0 0 1 -.83 1.56z"/><path d="m37.08 46h-26.16a3.92 3.92 0 0 1 -3.36-5.93c1.44-2.39 2.36-3.68 2.85-6.07 1.48-7.42 1.48-7.64 1.91-8.91a16 16 0 0 1 5.37-8l1.31-1.09h10l1.31 1.05a16.75 16.75 0 0 1 5.89 9.95c1.41 7.07 1.47 8.48 2.87 10.8l1.37 2.29a3.92 3.92 0 0 1 -3.36 5.91z"/><path d="m32 4.39-3.21 7.61h-9.58l-3.21-7.61a1.72 1.72 0 0 1 2.35-2.21 12.05 12.05 0 0 0 11 .14 2.06 2.06 0 0 1 1-.32 1.72 1.72 0 0 1 1.65 2.39z"/></g><path d="m29 16h-10a2 2 0 0 1 0-4h10a2 2 0 0 1 0 4z" fill="#bec6c6"/><circle cx="24" cy="33" r="8" fill="#f0bc5e"/><circle cx="19" cy="33" r="1" fill="#f8f9f9"/><circle cx="29" cy="33" r="1" fill="#f8f9f9"/><path d="m24 32a1 1 0 1 1 1-1 1 1 0 0 0 1 1c1.66 0 1.21-3-1-3.82v-.18a1 1 0 0 0 -2 0v.18a3 3 0 0 0 1 5.82 1 1 0 1 1 -1 1 1 1 0 0 0 -1-1c-1.66 0-1.21 3 1 3.82v.18a1 1 0 0 0 2 0v-.18a3 3 0 0 0 -1-5.82z" fill="#f8f9f9"/><path d="m46.58 20.19-5.58-3.99a6.42 6.42 0 0 0 -8.3.69l-.51.5a16.63 16.63 0 0 0 -1.25-1.12 3 3 0 0 0 -.75-5l2.73-6.47a2.73 2.73 0 0 0 -3.73-3.49 11.11 11.11 0 0 1 -10.38 0 2.73 2.73 0 0 0 -3.73 3.49l2.73 6.47a3 3 0 0 0 -.75 5 16.63 16.63 0 0 0 -1.25 1.12l-.51-.5a6.44 6.44 0 0 0 -8.3-.69l-5.58 4a1 1 0 0 0 -.13 1.52c1.23 1.21 2 2.28 3.71 2.28a1.43 1.43 0 0 1 1 .41 3.85 3.85 0 0 0 3 1.59c.7 0 1 .39 1.75 1.16-1.32 6.61-1.4 8-2.68 10.11s-2.07 3.1-2.07 4.81a4.93 4.93 0 0 0 4.92 4.92h26.16a4.92 4.92 0 0 0 4.22-7.44c-2.78-4.63-2.21-3.22-4-12.4.82-.82 1-1.16 1.75-1.16a3.36 3.36 0 0 0 2.41-1c.61-.61.89-1 1.59-1 1.7 0 2.42-1 3.71-2.29a1 1 0 0 0 -.18-1.52zm-28.58-6.19a1 1 0 0 1 1-1h10a1 1 0 0 1 0 2h-10a1 1 0 0 1 -1-1zm-.08-10.92a13.08 13.08 0 0 0 11.9.13 1.24 1.24 0 0 1 .59-.21.72.72 0 0 1 .66 1l-2.94 7h-8.26l-2.94-7a.72.72 0 0 1 .99-.92zm-8.92 20.92c-.68 0-1-.37-1.59-1a3.36 3.36 0 0 0 -2.41-1 1.43 1.43 0 0 1 -1-.41l-.46-.46 4.62-3.3a4.54 4.54 0 0 1 5.73.47l.56.57a17.39 17.39 0 0 0 -3.14 6.05 3.35 3.35 0 0 0 -2.31-.92zm30.58 16.58a2.92 2.92 0 0 1 -2.5 4.42h-26.16a2.92 2.92 0 0 1 -2.92-2.92c0-1 .31-1.33 1.79-3.78 3.56-5.93 1-14.48 8.52-20.47l1-.83h9.3c2.86 2.28 4.62 4 6.09 8.37.42 1.27.47 1.78 1.87 8.79.57 2.61 1.55 3.98 3.01 6.42zm3.42-18.58a3.36 3.36 0 0 0 -2.41 1c-.61.61-.89 1-1.59 1a3.35 3.35 0 0 0 -2.31.92 17.3 17.3 0 0 0 -3.14-6.05l.56-.57a4.54 4.54 0 0 1 5.73-.47l4.62 3.3c-.57.57-.8.87-1.46.87z" fill="#414141"/></g><g transform="matrix(1.2938549551651626 0.3309861468179679 -0.3309861468179679 1.2938549551651626 294.74758300384093 255.19123410339643)" id="L1_19"><path d="m2 30h44v4h-44z" fill="#bec6c6"/><path d="m4 6h40v24h-40z" fill="#f8f9f9"/><path d="m20 2-.73 4h-4.09l.82-4z" fill="#bec6c6"/><path d="m32.82 6h-4.09l-.73-4h4z" fill="#bec6c6"/><path d="m14.18 34-2.18 12h-5l2.45-12z" fill="#bec6c6"/><path d="m41 46h-5l-2.18-12h4.73z" fill="#bec6c6"/><path d="m46 29h-1v-23a1 1 0 0 0 -1-1h-10.36l-.64-3.2a1 1 0 0 0 -1-.8h-4a1 1 0 0 0 -1 1.18l.53 2.82h-7.06l.53-2.82a1 1 0 0 0 -1-1.18h-4a1 1 0 0 0 -1 .8l-.64 3.2h-10.36a1 1 0 0 0 -1 1v23h-1a1 1 0 0 0 -1 1v4a1 1 0 0 0 1 1h6.23l-2.23 10.8a1 1 0 0 0 1 1.2h5a1 1 0 0 0 1-.82l.92-5.18h20.16l.92 5.18a1 1 0 0 0 1 .82h5a1 1 0 0 0 1-1.2l-2.23-10.8h6.23a1 1 0 0 0 1-1v-4a1 1 0 0 0 -1-1zm-16.8-26h2l.41 2h-2zm-12.38 0h2l-.36 2h-2zm-11.82 4h38v22h-38zm6.17 38h-2.95l2-10h2.78zm3.12-6 .71-4h18l.72 4zm25.49 6h-3l-1.78-10h2.71zm5.22-12h-42v-2h42z" fill="#414141"/><path d="m22 19a7 7 0 1 1 -7-7v4a3 3 0 1 0 3 3z" fill="#f0bc5e"/><g fill="#bec6c6"><path d="m24 17h-4a3 3 0 0 0 -3-3v-4a7 7 0 0 1 7 7z"/><path d="m40 11h-6a1 1 0 0 1 0-2h6a1 1 0 0 1 0 2z"/><path d="m38 15h-4a1 1 0 0 1 0-2h4a1 1 0 0 1 0 2z"/><path d="m36 27h-4a1 1 0 0 1 0-2h4a1 1 0 0 1 0 2z"/><path d="m38 23h-6a1 1 0 0 1 0-2h6a1 1 0 0 1 0 2z"/><path d="m28 25c-3.26 0-3.32.09-3.71-.29l-1-1a1 1 0 0 1 1.42-1.42l.7.71h2.59a1 1 0 0 1 0 2z"/><path d="m26 14a1 1 0 0 1 -.71-1.71c1-1 1.19-1.29 1.71-1.29h3a1 1 0 0 1 0 2h-2.59c-.64.65-.88 1-1.41 1z"/></g></g><g transform="matrix(1.6549307133240438 -0.33098614971564555 0.33098614971564555 1.6549307133240438 133.7059537185673 305.26230275520265)" id="L1_20"><path d="m46 42v4h-44v-44h4v40z" fill="#bec6c6"/><g fill="#f8f9f9"><path d="m20 35h-2v7h-6v-7h-2l5-6z"/><path d="m33 31h-2v11h-6v-11h-2l5-6z"/><path d="m46 23h-2v19h-6v-19h-2l5-6z"/></g><path d="m15 18a1 1 0 1 1 1-1 1 1 0 0 0 1 1c1.66 0 1.21-3-1-3.82v-.18a1 1 0 0 0 -2 0v.18a3 3 0 0 0 1 5.82 1 1 0 1 1 -1 1 1 1 0 0 0 -1-1c-1.66 0-1.21 3 1 3.82v.18a1 1 0 0 0 2 0v-.18a3 3 0 0 0 -1-5.82z" fill="#f0bc5e"/><path d="m46 41h-1v-17h1a1 1 0 0 0 .77-1.64l-5-6a1 1 0 0 0 -1.54 0l-5 6a1 1 0 0 0 .77 1.64h1v17h-5v-9h1a1 1 0 0 0 .77-1.64l-5-6a1 1 0 0 0 -1.54 0l-5 6a1 1 0 0 0 .77 1.64h1v9h-5v-5h1a1 1 0 0 0 .77-1.64l-5-6a1 1 0 0 0 -1.54 0l-5 6a1 1 0 0 0 .77 1.64h1v5h-4v-39a1 1 0 0 0 -1-1h-4a1 1 0 0 0 -1 1v44a1 1 0 0 0 1 1h44a1 1 0 0 0 1-1v-4a1 1 0 0 0 -1-1zm-7.87-19 2.87-3.44 2.87 3.44a1 1 0 0 0 -.87 1v18h-4v-18a1 1 0 0 0 -.87-1zm-13 8 2.87-3.44 2.87 3.44a1 1 0 0 0 -.87 1v10h-4v-10a1 1 0 0 0 -.87-1zm-13 4 2.87-3.44 2.87 3.44a1 1 0 0 0 -.87 1v6h-4v-6a1 1 0 0 0 -.87-1zm32.87 11h-42v-42h2v39a1 1 0 0 0 1 1h39z" fill="#414141"/><path d="m23 17a1 1 0 0 0 1 1h.14a4 4 0 0 0 7.63.32 1 1 0 1 0 -1.9-.64 2 2 0 0 1 -3.59.32h.72a1 1 0 0 0 0-2h-1v-2h1a1 1 0 0 0 0-2h-.72a2 2 0 0 1 3.59.31 1 1 0 1 0 1.9-.62 4 4 0 0 0 -7.63.31 1 1 0 1 0 -.14 2v2a1 1 0 0 0 -1 1z" fill="#414141"/><path d="m38 9h.68c-.07 1.08-.63 1.54-1.39 2.29a1 1 0 0 0 .71 1.71h6a1 1 0 0 0 0-2h-3.86a4.48 4.48 0 0 0 .53-2h1.33a1 1 0 0 0 0-2h-1.6c-.23-1.1-.57-2.1-.1-2.93a1.93 1.93 0 0 1 3-.56 1 1 0 1 0 1.37-1.51 3.92 3.92 0 0 0 -6.11 1.06 5.08 5.08 0 0 0 -.2 3.94h-.36a1 1 0 0 0 0 2z" fill="#414141"/></g><g transform="matrix(1.5229072212963684 0.6526745460227591 -0.6526745460227591 1.5229072212963684 119.4083111956956 38.84807296230825)" id="L1_21"><rect x="2px" y="8px" width="40px" height="32px" transform="matrix(-1 0 0 -1 44 48)" fill="#bec6c6"/><g fill="#f8f9f9"><path d="m10 8h24v32h-24z" transform="matrix(0 1 -1 0 46 2)"/><path d="m33.78 44h3.22a1 1 0 0 0 1-1v-3h-6l.81 3.24a1 1 0 0 0 .97.76z"/><path d="m10.22 44h-3.22a1 1 0 0 1 -1-1v-3h6l-.81 3.24a1 1 0 0 1 -.97.76z"/><path d="m3 16h5a0 0 0 0 1 0 0v4a0 0 0 0 1 0 0h-5a1 1 0 0 1 -1-1v-2a1 1 0 0 1 1-1z" transform="matrix(-1 0 0 -1 10 36)"/><path d="m3 28h5a0 0 0 0 1 0 0v4a0 0 0 0 1 0 0h-5a1 1 0 0 1 -1-1v-2a1 1 0 0 1 1-1z" transform="matrix(-1 0 0 -1 10 60)"/></g><circle cx="39" cy="11" r="7" fill="#bec6c6"/><path d="m38 14c-.54 0-.57-.15-2.71-2.29a1 1 0 0 1 1.42-1.42l1.29 1.3 3.29-3.3a1 1 0 0 1 1.42 1.42l-4 4a1 1 0 0 1 -.71.29z" fill="#f8f9f9"/><path d="m39 3a8 8 0 0 0 -6.92 4h-27.08a4 4 0 0 0 -4 4v26a4 4 0 0 0 4 4v2a2 2 0 0 0 2 2h3.22a2 2 0 0 0 1.94-1.52l.62-2.48h18.44l.62 2.48a2 2 0 0 0 1.94 1.52h3.22a2 2 0 0 0 2-2v-2a4 4 0 0 0 4-4v-19.08a8 8 0 0 0 -4-14.92zm-34 6h26.25a8.24 8.24 0 0 0 -.25 2h-25a1 1 0 0 0 -1 1v3h-2v-4a2 2 0 0 1 2-2zm32 9.75v16.25h-30v-2a2 2 0 0 0 2-2v-2a2 2 0 0 0 -2-2v-6a2 2 0 0 0 2-2v-2a2 2 0 0 0 -2-2v-2h24.25a8 8 0 0 0 5.75 5.75zm-34 2.25h2v6h-2zm0-4h4v2h-4zm0 12h4v2h-4zm7.22 14h-3.22v-2h3.72zm26.78 0h-3.22l-.5-2h3.72zm4-6a2 2 0 0 1 -2 2h-34a2 2 0 0 1 -2-2v-4h2v3a1 1 0 0 0 1 1h32a1 1 0 0 0 1-1v-17a8.24 8.24 0 0 0 2-.25zm2-21.54a6 6 0 1 1 -4-10.46 6 6 0 0 1 4 10.46z" fill="#414141"/><path d="m30 30a1 1 0 0 1 1-1 1 1 0 0 0 1-1v-8a1 1 0 0 0 -1-1 1 1 0 0 1 -1-1c0-1.91 4-1 4 2v8c0 3-4 3.92-4 2z" fill="#bec6c6"/><path d="m25.94 28a8 8 0 1 0 -13.88 0c2.74 5.22 11.04 5.42 13.88 0zm-1.32-1.87-1.78-1a4 4 0 0 0 -2.84-4.99v-2.05a6 6 0 0 1 4.62 8zm-6.62-8v2.05a4 4 0 0 0 -2.84 4.92l-1.78 1a6 6 0 0 1 4.62-8.01zm-3.62 9.73 1.77-1a4 4 0 0 0 5.7 0l1.77 1a6 6 0 0 1 -9.24-.04z" fill="#f0bc5e"/><circle cx="19" cy="24" r="2" fill="#f8f9f9"/></g><g transform="matrix(1.25 0 0 1.25 263 68)" id="L1_22"><rect x="6px" y="2px" width="28px" height="44px" fill="#bec6c6"/><path d="m9 5h22v38h-22z" fill="#f8f9f9"/><g fill="#bec6c6"><path d="m24 17h-2v7h-4v-7h-2l4-5z"/><path d="m23 7h-6a2 2 0 0 1 -2-2h10a2 2 0 0 1 -2 2z"/><circle cx="35" cy="15" r="7"/></g><path d="m34 18c-.54 0-.57-.15-2.71-2.29a1 1 0 0 1 1.42-1.42l1.29 1.3 3.29-3.3a1 1 0 0 1 1.42 1.42l-4 4a1 1 0 0 1 -.71.29z" fill="#f8f9f9"/><path d="m35 7v-2a4 4 0 0 0 -4-4h-22a4 4 0 0 0 -4 4v38a4 4 0 0 0 4 4h22a4 4 0 0 0 4-4v-20a8 8 0 0 0 0-16zm-2 36a2 2 0 0 1 -2 2h-22a2 2 0 0 1 -2-2v-38a2 2 0 0 1 2-2h22a2 2 0 0 1 2 2v2.25a8 8 0 0 0 0 15.5zm2-22a6 6 0 1 1 6-6 6 6 0 0 1 -6 6z" fill="#414141"/><circle cx="20" cy="28" r="8" fill="#f0bc5e"/><circle cx="15" cy="28" r="1" fill="#f8f9f9"/><circle cx="25" cy="28" r="1" fill="#f8f9f9"/><path d="m20 27a1 1 0 1 1 1-1 1 1 0 0 0 1 1c1.66 0 1.21-3-1-3.82v-.18a1 1 0 0 0 -2 0v.18a3 3 0 0 0 1 5.82 1 1 0 1 1 -1 1 1 1 0 0 0 -1-1c-1.66 0-1.21 3 1 3.82v.18a1 1 0 0 0 2 0v-.18a3 3 0 0 0 -1-5.82z" fill="#f8f9f9"/><path d="m22 41h-4a1 1 0 0 1 0-2h4a1 1 0 0 1 0 2z" fill="#bec6c6"/></g><g transform="matrix(1.25 0 0 1.25 184.9999974250794 165)" id="L1_23"><path d="m45.14 32.71-11.23 11.4a3 3 0 0 1 -4.24 0l-20.07-19.73 20.21 11.67a3 3 0 0 0 4.1-1.1l6.45-11.16 4.75 4.67a3 3 0 0 1 .03 4.25z" fill="#bec6c6"/><path d="m41.91 21.1-8 13.9a3 3 0 0 1 -4.1 1.1l-26-15a5 5 0 0 0 -1.81-6.88l6-10.39a5 5 0 0 0 6.83-1.83l26 15a3 3 0 0 1 1.08 4.1z" fill="#f8f9f9"/><path d="m29.31 36.92-26-15a1 1 0 0 1 -.31-1.37 4 4 0 0 0 -1.5-5.46 1 1 0 0 1 -.37-1.37l6-10.39a1 1 0 0 1 1.37-.33 4 4 0 0 0 5.5-1.5 1 1 0 0 1 1.37-.37l26 15a4 4 0 0 1 1.47 5.47l-8 13.85a4 4 0 0 1 -5.53 1.47zm-24.19-16.27 25.19 14.54a2 2 0 0 0 2.69-.74l8-13.85a2 2 0 0 0 -.73-2.73l-25.15-14.54a6 6 0 0 1 -6.71 1.79l-5.09 8.81a6 6 0 0 1 1.8 6.72z" fill="#414141"/><circle cx="21" cy="15" r="2" fill="#f0bc5e"/><circle cx="23" cy="23" r="2" fill="#f0bc5e"/><path d="m16.86 21.49a1 1 0 0 1 -.26-2l10.93-2.89a1 1 0 0 1 1.22.7 1 1 0 0 1 -.75 1.23c-11.64 3.13-10.95 2.96-11.14 2.96z" fill="#f0bc5e"/><path d="m27.11 29.72a1 1 0 0 1 -.86-1.5l6-10.39a1 1 0 1 1 1.73 1l-5.98 10.39a1 1 0 0 1 -.89.5z" fill="#bec6c6"/><path d="m30.58 31.72a1 1 0 0 1 -.87-1.5l6-10.39a1 1 0 0 1 1.37-.37 1 1 0 0 1 .36 1.37l-6 10.39a1 1 0 0 1 -.86.5z" fill="#bec6c6"/><g fill="#414141"><circle cx="11" cy="13" r="2"/><path d="m11 47c-15.71 0-10.7-35 0-35a1 1 0 0 1 0 2c-4.11 0-8 8.75-8 18 0 8 3.07 13 8 13 4.38 0 7.34-4 7.9-10.58a1 1 0 0 1 2 .17c-.79 9.15-5.63 12.41-9.9 12.41z"/><path d="m29 44.85-20.1-19.76a1 1 0 1 1 1.4-1.42l20.07 19.76a2 2 0 0 0 2.83 0l11.23-11.43a2 2 0 0 0 0-2.84l-4.77-4.66a1 1 0 1 1 1.4-1.42l4.75 4.67a4 4 0 0 1 0 5.66l-11.19 11.4a4 4 0 0 1 -5.62.04z"/></g></g><g transform="matrix(1.5044825181162016 -0.1805379028363637 0.1805379028363637 1.5044825181162016 12.77702010761471 28.262301540923808)" id="L1_26"><path d="m42 17v26a3 3 0 0 1 -3 3h-4a3 3 0 0 0 3-3v-20a3 3 0 0 0 -3-3h-30a3 3 0 0 1 0-6h34a3 3 0 0 1 3 3z" fill="#bec6c6"/><path d="m38 23v20a3 3 0 0 1 -3 3h-30a3 3 0 0 1 -3-3v-26a3 3 0 0 0 3 3h30a3 3 0 0 1 3 3z" fill="#f8f9f9"/><path d="m28 4h4v16h-4z" fill="#f8f9f9"/><path d="m8 2h20v18h-20z" fill="#bec6c6"/><path d="m11 20v-13a2 2 0 0 0 2-2h10a2 2 0 0 0 2 2v13z" fill="#f8f9f9"/><path d="m22.9 20h-9.8a5 5 0 1 1 9.8 0z" fill="#f0bc5e"/><path d="m46 27v8a2 2 0 0 1 -2 2h-10a4 4 0 0 1 0-8h10a2 2 0 0 0 2-2z" fill="#bec6c6"/><path d="m46 27a2 2 0 0 1 -2 2h-2v-4h2a2 2 0 0 1 2 2z" fill="#f8f9f9"/><path d="m44 24h-1v-7a4 4 0 0 0 -4-4h-6v-9a1 1 0 0 0 -1-1h-3v-1a1 1 0 0 0 -1-1h-20a1 1 0 0 0 -1 1v11h-2a4 4 0 0 0 -4 4v26a4 4 0 0 0 4 4h34a4 4 0 0 0 4-4v-5h1a3 3 0 0 0 3-3v-8a3 3 0 0 0 -3-3zm0 2a1 1 0 0 1 0 2h-1v-2zm-5-11a2 2 0 0 1 2 2v11h-2v-5a4 4 0 0 0 -4-4h-2v-4zm-8-10v14h-2v-14zm-22-2h18v16h-18zm-4 12h2v4h-2a2 2 0 0 1 0-4zm0 30a2 2 0 0 1 -2-2v-22.54a4 4 0 0 0 2 .54h30a2 2 0 0 1 2 2v5h-3a5 5 0 0 0 0 10h3v5a2 2 0 0 1 -2 2zm36-2a2 2 0 0 1 -2 2h-.54c.73-1.26.54-1.88.54-7h2zm4-8a1 1 0 0 1 -1 1h-10a3 3 0 0 1 0-6c10.72 0 10.36.07 11-.18z" fill="#414141"/><circle cx="34" cy="33" r="1" fill="#f8f9f9"/><circle cx="18" cy="10" r="1" fill="#bec6c6"/></g></defs><g fi:class="KUsePattern"><pattern id="pattern_L1_1" width="350" height="350" patternUnits="userSpaceOnUse"><use xlink:href="#L1_1" x="-350" y="-350"/><use xlink:href="#L1_1" x="0" y="-350"/><use xlink:href="#L1_1" x="350" y="-350"/><use xlink:href="#L1_1" x="-350" y="0"/><use xlink:href="#L1_1" x="0" y="0"/><use xlink:href="#L1_1" x="350" y="0"/><use xlink:href="#L1_1" x="-350" y="350"/><use xlink:href="#L1_1" x="0" y="350"/><use xlink:href="#L1_1" x="350" y="350"/></pattern><rect x="0" y="0" width="100%" height="100%" fill="url(#pattern_L1_1)"/></g><g fi:class="KUsePattern" opacity="0.68"><pattern id="pattern_L1_3" width="350" height="350" patternUnits="userSpaceOnUse"><use xlink:href="#L1_3" x="-350" y="-350"/><use xlink:href="#L1_3" x="0" y="-350"/><use xlink:href="#L1_3" x="350" y="-350"/><use xlink:href="#L1_3" x="-350" y="0"/><use xlink:href="#L1_3" x="0" y="0"/><use xlink:href="#L1_3" x="350" y="0"/><use xlink:href="#L1_3" x="-350" y="350"/><use xlink:href="#L1_3" x="0" y="350"/><use xlink:href="#L1_3" x="350" y="350"/></pattern><rect x="0" y="0" width="100%" height="100%" fill="url(#pattern_L1_3)"/></g><g fi:class="KUsePattern" opacity="0.1"><pattern id="pattern_L1_5" width="350" height="350" patternUnits="userSpaceOnUse"><use xlink:href="#L1_5" x="-350" y="-350"/><use xlink:href="#L1_5" x="0" y="-350"/><use xlink:href="#L1_5" x="350" y="-350"/><use xlink:href="#L1_5" x="-350" y="0"/><use xlink:href="#L1_5" x="0" y="0"/><use xlink:href="#L1_5" x="350" y="0"/><use xlink:href="#L1_5" x="-350" y="350"/><use xlink:href="#L1_5" x="0" y="350"/><use xlink:href="#L1_5" x="350" y="350"/></pattern><rect x="0" y="0" width="100%" height="100%" fill="url(#pattern_L1_5)"/></g><g fi:class="KUsePattern"><pattern id="pattern_L1_6" width="350" height="350" patternUnits="userSpaceOnUse"><use xlink:href="#L1_6" x="-350" y="-350"/><use xlink:href="#L1_6" x="0" y="-350"/><use xlink:href="#L1_6" x="350" y="-350"/><use xlink:href="#L1_6" x="-350" y="0"/><use xlink:href="#L1_6" x="0" y="0"/><use xlink:href="#L1_6" x="350" y="0"/><use xlink:href="#L1_6" x="-350" y="350"/><use xlink:href="#L1_6" x="0" y="350"/><use xlink:href="#L1_6" x="350" y="350"/></pattern><rect x="0" y="0" width="100%" height="100%" fill="url(#pattern_L1_6)"/></g><g fi:class="KUsePattern"><pattern id="pattern_L1_7" width="350" height="350" patternUnits="userSpaceOnUse"><use xlink:href="#L1_7" x="-350" y="-350"/><use xlink:href="#L1_7" x="0" y="-350"/><use xlink:href="#L1_7" x="350" y="-350"/><use xlink:href="#L1_7" x="-350" y="0"/><use xlink:href="#L1_7" x="0" y="0"/><use xlink:href="#L1_7" x="350" y="0"/><use xlink:href="#L1_7" x="-350" y="350"/><use xlink:href="#L1_7" x="0" y="350"/><use xlink:href="#L1_7" x="350" y="350"/></pattern><rect x="0" y="0" width="100%" height="100%" fill="url(#pattern_L1_7)"/></g><g fi:class="KUsePattern"><pattern id="pattern_L1_9" width="350" height="350" patternUnits="userSpaceOnUse"><use xlink:href="#L1_9" x="-350" y="-350"/><use xlink:href="#L1_9" x="0" y="-350"/><use xlink:href="#L1_9" x="350" y="-350"/><use xlink:href="#L1_9" x="-350" y="0"/><use xlink:href="#L1_9" x="0" y="0"/><use xlink:href="#L1_9" x="350" y="0"/><use xlink:href="#L1_9" x="-350" y="350"/><use xlink:href="#L1_9" x="0" y="350"/><use xlink:href="#L1_9" x="350" y="350"/></pattern><rect x="0" y="0" width="100%" height="100%" fill="url(#pattern_L1_9)"/></g><g fi:class="KUsePattern" opacity="0.09"><pattern id="pattern_L1_10" width="350" height="350" patternUnits="userSpaceOnUse"><use xlink:href="#L1_10" x="-350" y="-350"/><use xlink:href="#L1_10" x="0" y="-350"/><use xlink:href="#L1_10" x="350" y="-350"/><use xlink:href="#L1_10" x="-350" y="0"/><use xlink:href="#L1_10" x="0" y="0"/><use xlink:href="#L1_10" x="350" y="0"/><use xlink:href="#L1_10" x="-350" y="350"/><use xlink:href="#L1_10" x="0" y="350"/><use xlink:href="#L1_10" x="350" y="350"/></pattern><rect x="0" y="0" width="100%" height="100%" fill="url(#pattern_L1_10)"/></g><g fi:class="KUsePattern"><pattern id="pattern_L1_12" width="350" height="350" patternUnits="userSpaceOnUse"><use xlink:href="#L1_12" x="-350" y="-350"/><use xlink:href="#L1_12" x="0" y="-350"/><use xlink:href="#L1_12" x="350" y="-350"/><use xlink:href="#L1_12" x="-350" y="0"/><use xlink:href="#L1_12" x="0" y="0"/><use xlink:href="#L1_12" x="350" y="0"/><use xlink:href="#L1_12" x="-350" y="350"/><use xlink:href="#L1_12" x="0" y="350"/><use xlink:href="#L1_12" x="350" y="350"/></pattern><rect x="0" y="0" width="100%" height="100%" fill="url(#pattern_L1_12)"/></g><g fi:class="KUsePattern"><pattern id="pattern_L1_13" width="350" height="350" patternUnits="userSpaceOnUse"><use xlink:href="#L1_13" x="-350" y="-350"/><use xlink:href="#L1_13" x="0" y="-350"/><use xlink:href="#L1_13" x="350" y="-350"/><use xlink:href="#L1_13" x="-350" y="0"/><use xlink:href="#L1_13" x="0" y="0"/><use xlink:href="#L1_13" x="350" y="0"/><use xlink:href="#L1_13" x="-350" y="350"/><use xlink:href="#L1_13" x="0" y="350"/><use xlink:href="#L1_13" x="350" y="350"/></pattern><rect x="0" y="0" width="100%" height="100%" fill="url(#pattern_L1_13)"/></g><g fi:class="KUsePattern" opacity="0.7"><pattern id="pattern_L1_14" width="350" height="350" patternUnits="userSpaceOnUse"><use xlink:href="#L1_14" x="-350" y="-350"/><use xlink:href="#L1_14" x="0" y="-350"/><use xlink:href="#L1_14" x="350" y="-350"/><use xlink:href="#L1_14" x="-350" y="0"/><use xlink:href="#L1_14" x="0" y="0"/><use xlink:href="#L1_14" x="350" y="0"/><use xlink:href="#L1_14" x="-350" y="350"/><use xlink:href="#L1_14" x="0" y="350"/><use xlink:href="#L1_14" x="350" y="350"/></pattern><rect x="0" y="0" width="100%" height="100%" fill="url(#pattern_L1_14)"/></g><g fi:class="KUsePattern"><pattern id="pattern_L1_15" width="350" height="350" patternUnits="userSpaceOnUse"><use xlink:href="#L1_15" x="-350" y="-350"/><use xlink:href="#L1_15" x="0" y="-350"/><use xlink:href="#L1_15" x="350" y="-350"/><use xlink:href="#L1_15" x="-350" y="0"/><use xlink:href="#L1_15" x="0" y="0"/><use xlink:href="#L1_15" x="350" y="0"/><use xlink:href="#L1_15" x="-350" y="350"/><use xlink:href="#L1_15" x="0" y="350"/><use xlink:href="#L1_15" x="350" y="350"/></pattern><rect x="0" y="0" width="100%" height="100%" fill="url(#pattern_L1_15)"/></g><g fi:class="KUsePattern"><pattern id="pattern_L1_16" width="350" height="350" patternUnits="userSpaceOnUse"><use xlink:href="#L1_16" x="-350" y="-350"/><use xlink:href="#L1_16" x="0" y="-350"/><use xlink:href="#L1_16" x="350" y="-350"/><use xlink:href="#L1_16" x="-350" y="0"/><use xlink:href="#L1_16" x="0" y="0"/><use xlink:href="#L1_16" x="350" y="0"/><use xlink:href="#L1_16" x="-350" y="350"/><use xlink:href="#L1_16" x="0" y="350"/><use xlink:href="#L1_16" x="350" y="350"/></pattern><rect x="0" y="0" width="100%" height="100%" fill="url(#pattern_L1_16)"/></g><g fi:class="KUsePattern"><pattern id="pattern_L1_18" width="350" height="350" patternUnits="userSpaceOnUse"><use xlink:href="#L1_18" x="-350" y="-350"/><use xlink:href="#L1_18" x="0" y="-350"/><use xlink:href="#L1_18" x="350" y="-350"/><use xlink:href="#L1_18" x="-350" y="0"/><use xlink:href="#L1_18" x="0" y="0"/><use xlink:href="#L1_18" x="350" y="0"/><use xlink:href="#L1_18" x="-350" y="350"/><use xlink:href="#L1_18" x="0" y="350"/><use xlink:href="#L1_18" x="350" y="350"/></pattern><rect x="0" y="0" width="100%" height="100%" fill="url(#pattern_L1_18)"/></g><g fi:class="KUsePattern"><pattern id="pattern_L1_19" width="350" height="350" patternUnits="userSpaceOnUse"><use xlink:href="#L1_19" x="-350" y="-350"/><use xlink:href="#L1_19" x="0" y="-350"/><use xlink:href="#L1_19" x="350" y="-350"/><use xlink:href="#L1_19" x="-350" y="0"/><use xlink:href="#L1_19" x="0" y="0"/><use xlink:href="#L1_19" x="350" y="0"/><use xlink:href="#L1_19" x="-350" y="350"/><use xlink:href="#L1_19" x="0" y="350"/><use xlink:href="#L1_19" x="350" y="350"/></pattern><rect x="0" y="0" width="100%" height="100%" fill="url(#pattern_L1_19)"/></g><g fi:class="KUsePattern"><pattern id="pattern_L1_20" width="350" height="350" patternUnits="userSpaceOnUse"><use xlink:href="#L1_20" x="-350" y="-350"/><use xlink:href="#L1_20" x="0" y="-350"/><use xlink:href="#L1_20" x="350" y="-350"/><use xlink:href="#L1_20" x="-350" y="0"/><use xlink:href="#L1_20" x="0" y="0"/><use xlink:href="#L1_20" x="350" y="0"/><use xlink:href="#L1_20" x="-350" y="350"/><use xlink:href="#L1_20" x="0" y="350"/><use xlink:href="#L1_20" x="350" y="350"/></pattern><rect x="0" y="0" width="100%" height="100%" fill="url(#pattern_L1_20)"/></g><g fi:class="KUsePattern" opacity="0.67"><pattern id="pattern_L1_21" width="350" height="350" patternUnits="userSpaceOnUse"><use xlink:href="#L1_21" x="-350" y="-350"/><use xlink:href="#L1_21" x="0" y="-350"/><use xlink:href="#L1_21" x="350" y="-350"/><use xlink:href="#L1_21" x="-350" y="0"/><use xlink:href="#L1_21" x="0" y="0"/><use xlink:href="#L1_21" x="350" y="0"/><use xlink:href="#L1_21" x="-350" y="350"/><use xlink:href="#L1_21" x="0" y="350"/><use xlink:href="#L1_21" x="350" y="350"/></pattern><rect x="0" y="0" width="100%" height="100%" fill="url(#pattern_L1_21)"/></g><g fi:class="KUsePattern" opacity="0.16"><pattern id="pattern_L1_22" width="350" height="350" patternUnits="userSpaceOnUse"><use xlink:href="#L1_22" x="-350" y="-350"/><use xlink:href="#L1_22" x="0" y="-350"/><use xlink:href="#L1_22" x="350" y="-350"/><use xlink:href="#L1_22" x="-350" y="0"/><use xlink:href="#L1_22" x="0" y="0"/><use xlink:href="#L1_22" x="350" y="0"/><use xlink:href="#L1_22" x="-350" y="350"/><use xlink:href="#L1_22" x="0" y="350"/><use xlink:href="#L1_22" x="350" y="350"/></pattern><rect x="0" y="0" width="100%" height="100%" fill="url(#pattern_L1_22)"/></g><g fi:class="KUsePattern"><pattern id="pattern_L1_23" width="350" height="350" patternUnits="userSpaceOnUse"><use xlink:href="#L1_23" x="-350" y="-350"/><use xlink:href="#L1_23" x="0" y="-350"/><use xlink:href="#L1_23" x="350" y="-350"/><use xlink:href="#L1_23" x="-350" y="0"/><use xlink:href="#L1_23" x="0" y="0"/><use xlink:href="#L1_23" x="350" y="0"/><use xlink:href="#L1_23" x="-350" y="350"/><use xlink:href="#L1_23" x="0" y="350"/><use xlink:href="#L1_23" x="350" y="350"/></pattern><rect x="0" y="0" width="100%" height="100%" fill="url(#pattern_L1_23)"/></g><g fi:class="KUsePattern" opacity="0.29"><pattern id="pattern_L1_26" width="350" height="350" patternUnits="userSpaceOnUse"><use xlink:href="#L1_26" x="-350" y="-350"/><use xlink:href="#L1_26" x="0" y="-350"/><use xlink:href="#L1_26" x="350" y="-350"/><use xlink:href="#L1_26" x="-350" y="0"/><use xlink:href="#L1_26" x="0" y="0"/><use xlink:href="#L1_26" x="350" y="0"/><use xlink:href="#L1_26" x="-350" y="350"/><use xlink:href="#L1_26" x="0" y="350"/><use xlink:href="#L1_26" x="350" y="350"/></pattern><rect x="0" y="0" width="100%" height="100%" fill="url(#pattern_L1_26)"/></g></svg>